<svg xmlns="http://www.w3.org/2000/svg" version="1.1" xmlns:xlink="http://www.w3.org/1999/xlink" xmlns:svgjs="http://svgjs.dev/svgjs" width="860.5" height="452" style="background-color: rgb(241, 241, 241);"><title>dinasour</title><g class="smm-container" transform="matrix(1,0,0,1,-591,-174.5)"><g class="smm-line-container"><path d="M 729,400.5L 791.4,400.5L 791.4,255.5Q 791.4,250.5 796.4,250.5L 833,250.5" stroke-dasharray="none" stroke-width="2" stroke="#1e3556" fill="none"></path><path d="M 729,400.5L 791.4,400.5L 791.4,421.5Q 791.4,426.5 796.4,426.5L 833,426.5" stroke-dasharray="none" stroke-width="2" stroke="#1e3556" fill="none"></path><path d="M 729,400.5L 791.4,400.5L 791.4,571.5Q 791.4,576.5 796.4,576.5L 833,576.5" stroke-dasharray="none" stroke-width="2" stroke="#1e3556" fill="none"></path><path d="M 902,250.5L 934.4,250.5L 934.4,229.5Q 934.4,224.5 939.4,224.5L 956,224.5" stroke-dasharray="none" stroke-width="2" stroke="#1e3556" fill="none"></path><path d="M 902,250.5L 934.4,250.5L 934.4,297.5Q 934.4,302.5 939.4,302.5L 956,302.5" stroke-dasharray="none" stroke-width="2" stroke="#1e3556" fill="none"></path><path d="M 1016,224.5L 1048.4,224.5L 1048.4,203.5Q 1048.4,198.5 1053.4,198.5L 1070,198.5" stroke-dasharray="none" stroke-width="2" stroke="#1e3556" fill="none"></path><path d="M 1130,198.5L 1162.4,198.5L 1162.4,198.5L 1184,198.5" stroke-dasharray="none" stroke-width="2" stroke="#1e3556" fill="none"></path><path d="M 1016,224.5L 1048.4,224.5L 1048.4,245.5Q 1048.4,250.5 1053.4,250.5L 1070,250.5" stroke-dasharray="none" stroke-width="2" stroke="#1e3556" fill="none"></path><path d="M 1130,250.5L 1162.4,250.5L 1162.4,250.5L 1184,250.5" stroke-dasharray="none" stroke-width="2" stroke="#1e3556" fill="none"></path><path d="M 1016,302.5L 1048.4,302.5L 1048.4,302.5L 1070,302.5" stroke-dasharray="none" stroke-width="2" stroke="#1e3556" fill="none"></path><path d="M 1306,198.5L 1338.4,198.5L 1338.4,198.5L 1360,198.5" stroke-dasharray="none" stroke-width="2" stroke="#1e3556" fill="none"></path><path d="M 920,426.5L 952.4,426.5L 952.4,405.5Q 952.4,400.5 957.4,400.5L 974,400.5" stroke-dasharray="none" stroke-width="2" stroke="#1e3556" fill="none"></path><path d="M 920,426.5L 952.4,426.5L 952.4,473.5Q 952.4,478.5 957.4,478.5L 974,478.5" stroke-dasharray="none" stroke-width="2" stroke="#1e3556" fill="none"></path><path d="M 1048,400.5L 1080.4,400.5L 1080.4,379.5Q 1080.4,374.5 1085.4,374.5L 1102,374.5" stroke-dasharray="none" stroke-width="2" stroke="#1e3556" fill="none"></path><path d="M 1048,400.5L 1080.4,400.5L 1080.4,421.5Q 1080.4,426.5 1085.4,426.5L 1102,426.5" stroke-dasharray="none" stroke-width="2" stroke="#1e3556" fill="none"></path><path d="M 1020,478.5L 1052.4,478.5L 1052.4,478.5L 1074,478.5" stroke-dasharray="none" stroke-width="2" stroke="#1e3556" fill="none"></path><path d="M 920,576.5L 952.4,576.5L 952.4,555.5Q 952.4,550.5 957.4,550.5L 974,550.5" stroke-dasharray="none" stroke-width="2" stroke="#1e3556" fill="none"></path><path d="M 920,576.5L 952.4,576.5L 952.4,597.5Q 952.4,602.5 957.4,602.5L 974,602.5" stroke-dasharray="none" stroke-width="2" stroke="#1e3556" fill="none"></path><path d="M 1118,536.5 Q 1138,576.5 1118,616.5" stroke-width="2" stroke="#387be9" fill="none"></path></g><g class="smm-outer-frame-container"></g><g class="smm-node-container"><g class="smm-node" transform="matrix(1,0,0,1,600,380)" style="cursor: default;"><path d="
      M10,0
      L117,0
      C117,0 127,0 127,10
      L127,29
      C127,29 127,39 117,39
      L10,39
      C10,39 0,39 0,29
      L0,10
      C0,10 0,0 10,0
      Z
    " class="smm-node-shape" transform="matrix(1,0,0,1,1,1)" fill="#1e3556" stroke-dasharray="none" stroke-width="2" stroke="#bdc5c9"></path><g transform="matrix(1,0,0,1,16,6)"><g data-width="97" data-height="29" data-offsetx="0"><foreignObject width="97" height="29" x="0" y="0" style="line-height: 1.2; font-family: 微软雅黑, &quot;Microsoft YaHei&quot;; font-size: 24px; font-weight: bold; font-style: normal; text-decoration: none; color: rgb(255, 255, 255); text-align: left;"><div class="smm-richtext-node-wrap" xmlns="http://www.w3.org/1999/xhtml" style="max-width: 500px;"><p>恐龙抗狼</p></div><style>
    * {
      margin: 0;
      padding: 0;
      box-sizing: border-box;
    }
  </style></foreignObject></g></g><rect width="133" height="45" x="-2" y="-2" class="smm-hover-node" rx="5" ry="5" fill="none" stroke="#5ec8f8"></rect></g><g class="smm-node" transform="matrix(1,0,0,1,833,233.5)" style="cursor: default;"><path d="
      M10,0
      L57,0
      C57,0 67,0 67,10
      L67,22
      C67,22 67,32 57,32
      L10,32
      C10,32 0,32 0,22
      L0,10
      C0,10 0,0 10,0
      Z
    " class="smm-node-shape" transform="matrix(1,0,0,1,1,1)" fill="#a9dada" stroke-dasharray="none" stroke-width="2" stroke="#1e3556"></path><g transform="matrix(1,0,0,1,16,6)"><g data-width="37" data-height="22" data-offsetx="0"><foreignObject width="37" height="22" x="0" y="0" style="line-height: 1.2; font-family: 微软雅黑, &quot;Microsoft YaHei&quot;; font-size: 18px; font-weight: normal; font-style: normal; text-decoration: none; color: rgb(255, 255, 255); text-align: left;"><div class="smm-richtext-node-wrap" xmlns="http://www.w3.org/1999/xhtml" style="max-width: 500px;"><p>恐龙</p></div></foreignObject></g></g><rect width="73" height="38" x="-2" y="-2" class="smm-hover-node" rx="5" ry="5" fill="none" stroke="#5ec8f8"></rect><rect fill="transparent" width="20" height="34" x="69" y="0"></rect></g><g class="smm-node" transform="matrix(1,0,0,1,833,409.5)" style="cursor: default;"><path d="
      M10,0
      L75,0
      C75,0 85,0 85,10
      L85,22
      C85,22 85,32 75,32
      L10,32
      C10,32 0,32 0,22
      L0,10
      C0,10 0,0 10,0
      Z
    " class="smm-node-shape" transform="matrix(1,0,0,1,1,1)" fill="#a9dada" stroke-dasharray="none" stroke-width="2" stroke="#1e3556"></path><g transform="matrix(1,0,0,1,16,6)"><g data-width="55" data-height="22" data-offsetx="0"><foreignObject width="55" height="22" x="0" y="0" style="line-height: 1.2; font-family: 微软雅黑, &quot;Microsoft YaHei&quot;; font-size: 18px; font-weight: normal; font-style: normal; text-decoration: none; color: rgb(255, 255, 255); text-align: left;"><div class="smm-richtext-node-wrap" xmlns="http://www.w3.org/1999/xhtml" style="max-width: 500px;"><p>障碍物</p></div></foreignObject></g></g><rect width="91" height="38" x="-2" y="-2" class="smm-hover-node" rx="5" ry="5" fill="none" stroke="#5ec8f8"></rect><rect fill="transparent" width="20" height="34" x="87" y="0"></rect></g><g class="smm-node" transform="matrix(1,0,0,1,833,559.5)" style="cursor: default;"><path d="
      M10,0
      L75,0
      C75,0 85,0 85,10
      L85,22
      C85,22 85,32 75,32
      L10,32
      C10,32 0,32 0,22
      L0,10
      C0,10 0,0 10,0
      Z
    " class="smm-node-shape" transform="matrix(1,0,0,1,1,1)" fill="#a9dada" stroke-dasharray="none" stroke-width="2" stroke="#1e3556"></path><rect fill="transparent" width="20" height="34" x="87" y="0"></rect><g transform="matrix(1,0,0,1,16,6)"><g data-width="55" data-height="22" data-offsetx="0"><foreignObject width="55" height="22" x="0" y="0" style="line-height: 1.2; font-family: 微软雅黑, &quot;Microsoft YaHei&quot;; font-size: 18px; font-weight: normal; font-style: normal; text-decoration: none; color: rgb(255, 255, 255); text-align: left;"><div class="smm-richtext-node-wrap" xmlns="http://www.w3.org/1999/xhtml" style="max-width: 500px;"><p>计数板</p></div></foreignObject></g></g><rect width="91" height="38" x="-2" y="-2" class="smm-hover-node" rx="5" ry="5" fill="none" stroke="#5ec8f8"></rect></g><g class="smm-node" transform="matrix(1,0,0,1,956,210.5)" style="cursor: default;"><path d="
      M5,0
      L54,0
      C54,0 59,0 59,5
      L59,22
      C59,22 59,27 54,27
      L5,27
      C5,27 0,27 0,22
      L0,5
      C0,5 0,0 5,0
      Z
    " class="smm-node-shape" transform="matrix(1,0,0,1,0.5,0.5)" fill="transparent" stroke-dasharray="none" stroke-width="1" stroke="#1e3556"></path><g transform="matrix(1,0,0,1,15.5,5.5)"><g data-width="29" data-height="17" data-offsetx="0"><foreignObject width="29" height="17" x="0" y="0" style="line-height: 1.2; font-family: 微软雅黑, &quot;Microsoft YaHei&quot;; font-size: 14px; font-weight: normal; font-style: normal; text-decoration: none; color: rgb(30, 53, 86); text-align: left;"><div class="smm-richtext-node-wrap" xmlns="http://www.w3.org/1999/xhtml" style="max-width: 500px;"><p>动作</p></div></foreignObject></g></g><rect width="64" height="32" x="-2" y="-2" class="smm-hover-node" rx="5" ry="5" fill="none" stroke="#5ec8f8"></rect><rect fill="transparent" width="20" height="28" x="60" y="0"></rect></g><g class="smm-node" transform="matrix(1,0,0,1,956,288.5)" style="cursor: default;"><path d="
      M5,0
      L54,0
      C54,0 59,0 59,5
      L59,22
      C59,22 59,27 54,27
      L5,27
      C5,27 0,27 0,22
      L0,5
      C0,5 0,0 5,0
      Z
    " class="smm-node-shape" transform="matrix(1,0,0,1,0.5,0.5)" fill="transparent" stroke-dasharray="none" stroke-width="1" stroke="#1e3556"></path><g transform="matrix(1,0,0,1,15.5,5.5)"><g data-width="29" data-height="17" data-offsetx="0"><foreignObject width="29" height="17" x="0" y="0" style="line-height: 1.2; font-family: 微软雅黑, &quot;Microsoft YaHei&quot;; font-size: 14px; font-weight: normal; font-style: normal; text-decoration: none; color: rgb(30, 53, 86); text-align: left;"><div class="smm-richtext-node-wrap" xmlns="http://www.w3.org/1999/xhtml" style="max-width: 500px;"><p>死亡</p></div></foreignObject></g></g><rect width="64" height="32" x="-2" y="-2" class="smm-hover-node" rx="5" ry="5" fill="none" stroke="#5ec8f8"></rect><rect fill="transparent" width="20" height="28" x="60" y="0"></rect></g><g class="smm-node" transform="matrix(1,0,0,1,1070,184.5)" style="cursor: default;"><path d="
      M5,0
      L54,0
      C54,0 59,0 59,5
      L59,22
      C59,22 59,27 54,27
      L5,27
      C5,27 0,27 0,22
      L0,5
      C0,5 0,0 5,0
      Z
    " class="smm-node-shape" transform="matrix(1,0,0,1,0.5,0.5)" fill="transparent" stroke-dasharray="none" stroke-width="1" stroke="#1e3556"></path><g transform="matrix(1,0,0,1,15.5,5.5)"><g data-width="29" data-height="17" data-offsetx="0"><foreignObject width="29" height="17" x="0" y="0" style="line-height: 1.2; font-family: 微软雅黑, &quot;Microsoft YaHei&quot;; font-size: 14px; font-weight: normal; font-style: normal; text-decoration: none; color: rgb(30, 53, 86); text-align: left;"><div class="smm-richtext-node-wrap" xmlns="http://www.w3.org/1999/xhtml" style="max-width: 500px;"><p>跳跃</p></div></foreignObject></g></g><rect width="64" height="32" x="-2" y="-2" class="smm-hover-node" rx="5" ry="5" fill="none" stroke="#5ec8f8"></rect><rect fill="transparent" width="20" height="28" x="60" y="0"></rect></g><g class="smm-node" transform="matrix(1,0,0,1,1184,184.5)" style="cursor: default;"><path d="
      M5,0
      L116,0
      C116,0 121,0 121,5
      L121,22
      C121,22 121,27 116,27
      L5,27
      C5,27 0,27 0,22
      L0,5
      C0,5 0,0 5,0
      Z
    " class="smm-node-shape" transform="matrix(1,0,0,1,0.5,0.5)" fill="transparent" stroke-dasharray="none" stroke-width="1" stroke="#1e3556"></path><g transform="matrix(1,0,0,1,15.5,5.5)"><g data-width="91" data-height="17" data-offsetx="0"><foreignObject width="91" height="17" x="0" y="0" style="line-height: 1.2; font-family: 微软雅黑, &quot;Microsoft YaHei&quot;; font-size: 14px; font-weight: normal; font-style: normal; text-decoration: none; color: rgb(30, 53, 86); text-align: left;"><div class="smm-richtext-node-wrap" xmlns="http://www.w3.org/1999/xhtml" style="max-width: 500px;"><p>空格/方向上键</p></div></foreignObject></g></g><rect width="126" height="32" x="-2" y="-2" class="smm-hover-node" rx="5" ry="5" fill="none" stroke="#5ec8f8"></rect><rect fill="transparent" width="20" height="28" x="122" y="0"></rect></g><g class="smm-node" transform="matrix(1,0,0,1,1070,236.5)" style="cursor: default;"><path d="
      M5,0
      L54,0
      C54,0 59,0 59,5
      L59,22
      C59,22 59,27 54,27
      L5,27
      C5,27 0,27 0,22
      L0,5
      C0,5 0,0 5,0
      Z
    " class="smm-node-shape" transform="matrix(1,0,0,1,0.5,0.5)" fill="transparent" stroke-dasharray="none" stroke-width="1" stroke="#1e3556"></path><g transform="matrix(1,0,0,1,15.5,5.5)"><g data-width="29" data-height="17" data-offsetx="0"><foreignObject width="29" height="17" x="0" y="0" style="line-height: 1.2; font-family: 微软雅黑, &quot;Microsoft YaHei&quot;; font-size: 14px; font-weight: normal; font-style: normal; text-decoration: none; color: rgb(30, 53, 86); text-align: left;"><div class="smm-richtext-node-wrap" xmlns="http://www.w3.org/1999/xhtml" style="max-width: 500px;"><p>下趴</p></div></foreignObject></g></g><rect width="64" height="32" x="-2" y="-2" class="smm-hover-node" rx="5" ry="5" fill="none" stroke="#5ec8f8"></rect><rect fill="transparent" width="20" height="28" x="60" y="0"></rect></g><g class="smm-node" transform="matrix(1,0,0,1,1184,236.5)" style="cursor: default;"><path d="
      M5,0
      L82,0
      C82,0 87,0 87,5
      L87,22
      C87,22 87,27 82,27
      L5,27
      C5,27 0,27 0,22
      L0,5
      C0,5 0,0 5,0
      Z
    " class="smm-node-shape" transform="matrix(1,0,0,1,0.5,0.5)" fill="transparent" stroke-dasharray="none" stroke-width="1" stroke="#1e3556"></path><g transform="matrix(1,0,0,1,15.5,5.5)"><g data-width="57" data-height="17" data-offsetx="0"><foreignObject width="57" height="17" x="0" y="0" style="line-height: 1.2; font-family: 微软雅黑, &quot;Microsoft YaHei&quot;; font-size: 14px; font-weight: normal; font-style: normal; text-decoration: none; color: rgb(30, 53, 86); text-align: left;"><div class="smm-richtext-node-wrap" xmlns="http://www.w3.org/1999/xhtml" style="max-width: 500px;"><p>方向下键</p></div></foreignObject></g></g><rect width="92" height="32" x="-2" y="-2" class="smm-hover-node" rx="5" ry="5" fill="none" stroke="#5ec8f8"></rect></g><g class="smm-node" transform="matrix(1,0,0,1,1070,288.5)" style="cursor: default;"><path d="
      M5,0
      L190,0
      C190,0 195,0 195,5
      L195,22
      C195,22 195,27 190,27
      L5,27
      C5,27 0,27 0,22
      L0,5
      C0,5 0,0 5,0
      Z
    " class="smm-node-shape" transform="matrix(1,0,0,1,0.5,0.5)" fill="transparent" stroke-dasharray="none" stroke-width="1" stroke="#1e3556"></path><g transform="matrix(1,0,0,1,15.5,5.5)"><g data-width="165" data-height="17" data-offsetx="0"><foreignObject width="165" height="17" x="0" y="0" style="line-height: 1.2; font-family: 微软雅黑, &quot;Microsoft YaHei&quot;; font-size: 14px; font-weight: normal; font-style: normal; text-decoration: none; color: rgb(30, 53, 86); text-align: left;"><div class="smm-richtext-node-wrap" xmlns="http://www.w3.org/1999/xhtml" style="max-width: 500px;"><p>撞击障碍物(仙人掌或者鸟)</p></div></foreignObject></g></g><rect width="200" height="32" x="-2" y="-2" class="smm-hover-node" rx="5" ry="5" fill="none" stroke="#5ec8f8"></rect></g><g class="smm-node" transform="matrix(1,0,0,1,1360,184.5)" style="cursor: default;"><path d="
      M5,0
      L76,0
      C76,0 81,0 81,5
      L81,22
      C81,22 81,27 76,27
      L5,27
      C5,27 0,27 0,22
      L0,5
      C0,5 0,0 5,0
      Z
    " class="smm-node-shape" transform="matrix(1,0,0,1,0.5,0.5)" fill="transparent" stroke-dasharray="none" stroke-width="1" stroke="#1e3556"></path><g transform="matrix(1,0,0,1,15.5,5.5)"><g data-width="51" data-height="17" data-offsetx="0"><foreignObject width="51" height="17" x="0" y="0" style="line-height: 1.2; font-family: 微软雅黑, &quot;Microsoft YaHei&quot;; font-size: 14px; font-weight: normal; font-style: normal; text-decoration: none; color: rgb(30, 53, 86); text-align: left;"><div class="smm-richtext-node-wrap" xmlns="http://www.w3.org/1999/xhtml" style="max-width: 500px;"><p>增加y值</p></div></foreignObject></g></g><rect width="86" height="32" x="-2" y="-2" class="smm-hover-node" rx="5" ry="5" fill="none" stroke="#5ec8f8"></rect></g><g class="smm-node" transform="matrix(1,0,0,1,974,386.5)" style="cursor: default;"><path d="
      M5,0
      L68,0
      C68,0 73,0 73,5
      L73,22
      C73,22 73,27 68,27
      L5,27
      C5,27 0,27 0,22
      L0,5
      C0,5 0,0 5,0
      Z
    " class="smm-node-shape" transform="matrix(1,0,0,1,0.5,0.5)" fill="transparent" stroke-dasharray="none" stroke-width="1" stroke="#1e3556"></path><g transform="matrix(1,0,0,1,15.5,5.5)"><g data-width="43" data-height="17" data-offsetx="0"><foreignObject width="43" height="17" x="0" y="0" style="line-height: 1.2; font-family: 微软雅黑, &quot;Microsoft YaHei&quot;; font-size: 14px; font-weight: normal; font-style: normal; text-decoration: none; color: rgb(30, 53, 86); text-align: left;"><div class="smm-richtext-node-wrap" xmlns="http://www.w3.org/1999/xhtml" style="max-width: 500px;"><p>仙人掌</p></div></foreignObject></g></g><rect width="78" height="32" x="-2" y="-2" class="smm-hover-node" rx="5" ry="5" fill="none" stroke="#5ec8f8"></rect><rect fill="transparent" width="20" height="28" x="74" y="0"></rect></g><g class="smm-node" transform="matrix(1,0,0,1,974,464.5)" style="cursor: default;"><path d="
      M5,0
      L40,0
      C40,0 45,0 45,5
      L45,22
      C45,22 45,27 40,27
      L5,27
      C5,27 0,27 0,22
      L0,5
      C0,5 0,0 5,0
      Z
    " class="smm-node-shape" transform="matrix(1,0,0,1,0.5,0.5)" fill="transparent" stroke-dasharray="none" stroke-width="1" stroke="#1e3556"></path><g transform="matrix(1,0,0,1,15.5,5.5)"><g data-width="15" data-height="17" data-offsetx="0"><foreignObject width="15" height="17" x="0" y="0" style="line-height: 1.2; font-family: 微软雅黑, &quot;Microsoft YaHei&quot;; font-size: 14px; font-weight: normal; font-style: normal; text-decoration: none; color: rgb(30, 53, 86); text-align: left;"><div class="smm-richtext-node-wrap" xmlns="http://www.w3.org/1999/xhtml" style="max-width: 500px;"><p>鸟</p></div></foreignObject></g></g><rect width="50" height="32" x="-2" y="-2" class="smm-hover-node" rx="5" ry="5" fill="none" stroke="#5ec8f8"></rect><rect fill="transparent" width="20" height="28" x="46" y="0"></rect></g><g class="smm-node" transform="matrix(1,0,0,1,1102,360.5)" style="cursor: default;"><path d="
      M5,0
      L96,0
      C96,0 101,0 101,5
      L101,22
      C101,22 101,27 96,27
      L5,27
      C5,27 0,27 0,22
      L0,5
      C0,5 0,0 5,0
      Z
    " class="smm-node-shape" transform="matrix(1,0,0,1,0.5,0.5)" fill="transparent" stroke-dasharray="none" stroke-width="1" stroke="#1e3556"></path><g transform="matrix(1,0,0,1,15.5,5.5)"><g data-width="71" data-height="17" data-offsetx="0"><foreignObject width="71" height="17" x="0" y="0" style="line-height: 1.2; font-family: 微软雅黑, &quot;Microsoft YaHei&quot;; font-size: 14px; font-weight: normal; font-style: normal; text-decoration: none; color: rgb(30, 53, 86); text-align: left;"><div class="smm-richtext-node-wrap" xmlns="http://www.w3.org/1999/xhtml" style="max-width: 500px;"><p>大小仙人掌</p></div></foreignObject></g></g><rect width="106" height="32" x="-2" y="-2" class="smm-hover-node" rx="5" ry="5" fill="none" stroke="#5ec8f8"></rect></g><g class="smm-node" transform="matrix(1,0,0,1,1102,412.5)" style="cursor: default;"><path d="
      M5,0
      L54,0
      C54,0 59,0 59,5
      L59,22
      C59,22 59,27 54,27
      L5,27
      C5,27 0,27 0,22
      L0,5
      C0,5 0,0 5,0
      Z
    " class="smm-node-shape" transform="matrix(1,0,0,1,0.5,0.5)" fill="transparent" stroke-dasharray="none" stroke-width="1" stroke="#1e3556"></path><g transform="matrix(1,0,0,1,15.5,5.5)"><g data-width="29" data-height="17" data-offsetx="0"><foreignObject width="29" height="17" x="0" y="0" style="line-height: 1.2; font-family: 微软雅黑, &quot;Microsoft YaHei&quot;; font-size: 14px; font-weight: normal; font-style: normal; text-decoration: none; color: rgb(30, 53, 86); text-align: left;"><div class="smm-richtext-node-wrap" xmlns="http://www.w3.org/1999/xhtml" style="max-width: 500px;"><p>个数</p></div></foreignObject></g></g><rect width="64" height="32" x="-2" y="-2" class="smm-hover-node" rx="5" ry="5" fill="none" stroke="#5ec8f8"></rect></g><g class="smm-node" transform="matrix(1,0,0,1,1074,464.5)" style="cursor: default;"><path d="
      M5,0
      L48,0
      C48,0 53,0 53,5
      L53,22
      C53,22 53,27 48,27
      L5,27
      C5,27 0,27 0,22
      L0,5
      C0,5 0,0 5,0
      Z
    " class="smm-node-shape" transform="matrix(1,0,0,1,0.5,0.5)" fill="transparent" stroke-dasharray="none" stroke-width="1" stroke="#1e3556"></path><g transform="matrix(1,0,0,1,15.5,5.5)"><g data-width="23" data-height="17" data-offsetx="0"><foreignObject width="23" height="17" x="0" y="0" style="line-height: 1.2; font-family: 微软雅黑, &quot;Microsoft YaHei&quot;; font-size: 14px; font-weight: normal; font-style: normal; text-decoration: none; color: rgb(30, 53, 86); text-align: left;"><div class="smm-richtext-node-wrap" xmlns="http://www.w3.org/1999/xhtml" style="max-width: 500px;"><p>y值</p></div></foreignObject></g></g><rect width="58" height="32" x="-2" y="-2" class="smm-hover-node" rx="5" ry="5" fill="none" stroke="#5ec8f8"></rect></g><g class="smm-node" transform="matrix(1,0,0,1,974,536.5)" style="cursor: default;"><path d="
      M5,0
      L96,0
      C96,0 101,0 101,5
      L101,22
      C101,22 101,27 96,27
      L5,27
      C5,27 0,27 0,22
      L0,5
      C0,5 0,0 5,0
      Z
    " class="smm-node-shape" transform="matrix(1,0,0,1,0.5,0.5)" fill="transparent" stroke-dasharray="none" stroke-width="1" stroke="#1e3556"></path><g transform="matrix(1,0,0,1,15.5,5.5)"><g data-width="71" data-height="17" data-offsetx="0"><foreignObject width="71" height="17" x="0" y="0" style="line-height: 1.2; font-family: 微软雅黑, &quot;Microsoft YaHei&quot;; font-size: 14px; font-weight: normal; font-style: normal; text-decoration: none; color: rgb(30, 53, 86); text-align: left;"><div class="smm-richtext-node-wrap" xmlns="http://www.w3.org/1999/xhtml" style="max-width: 500px;"><p>死亡时定格</p></div></foreignObject></g></g><rect width="106" height="32" x="-2" y="-2" class="smm-hover-node" rx="5" ry="5" fill="none" stroke="#5ec8f8"></rect></g><g class="smm-node" transform="matrix(1,0,0,1,974,588.5)" style="cursor: default;" opacity="1"><path d="
      M5,0
      L138,0
      C138,0 143,0 143,5
      L143,22
      C143,22 143,27 138,27
      L5,27
      C5,27 0,27 0,22
      L0,5
      C0,5 0,0 5,0
      Z
    " class="smm-node-shape" transform="matrix(1,0,0,1,0.5,0.5)" fill="transparent" stroke-dasharray="none" stroke-width="1" stroke="#1e3556"></path><g transform="matrix(1,0,0,1,15.5,5.5)"><g data-width="113" data-height="17" data-offsetx="0"><foreignObject width="113" height="17" x="0" y="0" style="line-height: 1.2; font-family: 微软雅黑, &quot;Microsoft YaHei&quot;; font-size: 14px; font-weight: normal; font-style: normal; text-decoration: none; color: rgb(30, 53, 86); text-align: left;"><div class="smm-richtext-node-wrap" xmlns="http://www.w3.org/1999/xhtml" style="max-width: 500px;"><p>依据时间进行增加</p></div></foreignObject></g></g><rect width="148" height="32" x="-2" y="-2" class="smm-hover-node" rx="5" ry="5" fill="none" stroke="#5ec8f8"></rect></g><g class="smm-node generalization_10d7d8cf-d843-4611-bfa2-4ee5a957b26f" transform="matrix(1,0,0,1,1138,561.5)" style="cursor: default;"><path d="
      M5,0
      L199,0
      C199,0 204,0 204,5
      L204,25
      C204,25 204,30 199,30
      L5,30
      C5,30 0,30 0,25
      L0,5
      C0,5 0,0 5,0
      Z
    " class="smm-node-shape" transform="matrix(1,0,0,1,0,0)" fill="#387be9" stroke-dasharray="none" stroke-width="0" stroke="#387be9"></path><g transform="matrix(1,0,0,1,15,5)"><g data-width="174" data-height="20" data-offsetx="0"><foreignObject width="174" height="20" x="0" y="0" style="line-height: 1.2; font-family: 微软雅黑, &quot;Microsoft YaHei&quot;; font-size: 16px; font-weight: normal; font-style: normal; text-decoration: none; color: rgb(255, 255, 255); text-align: left;"><div class="smm-richtext-node-wrap" xmlns="http://www.w3.org/1999/xhtml" style="max-width: 500px;"><p>跳出gameover显示信息 </p></div></foreignObject></g></g><rect width="208" height="34" x="-2" y="-2" class="smm-hover-node" rx="5" ry="5" fill="none" stroke="#5ec8f8"></rect></g></g><g class="smm-associative-line-container"><path d="M 1076,550.5321167826173 C 1717,551 1115,316.5 1168,316.5" stroke-dasharray="6,4" stroke-width="2" stroke="#333333" fill="none" marker-end="url(#SvgjsMarker1089)"></path><path d="M 1076,550.5321167826173 C 1717,551 1115,316.5 1168,316.5" stroke-width="8" stroke="transparent" fill="none"></path><g></g></g><g class="smm-other-container"></g></g><defs><marker markerWidth="10" markerHeight="10" refX="12" refY="5" viewBox="0 0 20 20" orient="auto-start-reverse" id="SvgjsMarker1000"><path d="M0,0 L2,5 L0,10 L10,5 Z" stroke="#333333" fill="#333333"></path></marker><marker markerWidth="10" markerHeight="10" refX="12" refY="5" viewBox="0 0 20 20" orient="auto-start-reverse" id="SvgjsMarker1001"><path d="M0,0 L2,5 L0,10 L10,5 Z" stroke="#333333" fill="#333333"></path></marker><marker markerWidth="10" markerHeight="10" refX="12" refY="5" viewBox="0 0 20 20" orient="auto-start-reverse" id="SvgjsMarker1002"><path d="M0,0 L2,5 L0,10 L10,5 Z" stroke="#333333" fill="#333333"></path></marker><marker markerWidth="10" markerHeight="10" refX="12" refY="5" viewBox="0 0 20 20" orient="auto-start-reverse" id="SvgjsMarker1003"><path d="M0,0 L2,5 L0,10 L10,5 Z" stroke="#333333" fill="#333333"></path></marker><marker markerWidth="10" markerHeight="10" refX="12" refY="5" viewBox="0 0 20 20" orient="auto-start-reverse" id="SvgjsMarker1004"><path d="M0,0 L2,5 L0,10 L10,5 Z" stroke="#333333" fill="#333333"></path></marker><marker markerWidth="10" markerHeight="10" refX="12" refY="5" viewBox="0 0 20 20" orient="auto-start-reverse" id="SvgjsMarker1005"><path d="M0,0 L2,5 L0,10 L10,5 Z" stroke="#333333" fill="#333333"></path></marker><marker markerWidth="10" markerHeight="10" refX="12" refY="5" viewBox="0 0 20 20" orient="auto-start-reverse" id="SvgjsMarker1006"><path d="M0,0 L2,5 L0,10 L10,5 Z" stroke="#333333" fill="#333333"></path></marker><marker markerWidth="10" markerHeight="10" refX="12" refY="5" viewBox="0 0 20 20" orient="auto-start-reverse" id="SvgjsMarker1007"><path d="M0,0 L2,5 L0,10 L10,5 Z" stroke="#333333" fill="#333333"></path></marker><marker markerWidth="10" markerHeight="10" refX="12" refY="5" viewBox="0 0 20 20" orient="auto-start-reverse" id="SvgjsMarker1008"><path d="M0,0 L2,5 L0,10 L10,5 Z" stroke="#333333" fill="#333333"></path></marker><marker markerWidth="10" markerHeight="10" refX="12" refY="5" viewBox="0 0 20 20" orient="auto-start-reverse" id="SvgjsMarker1009"><path d="M0,0 L2,5 L0,10 L10,5 Z" stroke="#333333" fill="#333333"></path></marker><marker markerWidth="10" markerHeight="10" refX="12" refY="5" viewBox="0 0 20 20" orient="auto-start-reverse" id="SvgjsMarker1010"><path d="M0,0 L2,5 L0,10 L10,5 Z" stroke="#333333" fill="#333333"></path></marker><marker markerWidth="10" markerHeight="10" refX="12" refY="5" viewBox="0 0 20 20" orient="auto-start-reverse" id="SvgjsMarker1011"><path d="M0,0 L2,5 L0,10 L10,5 Z" stroke="#333333" fill="#333333"></path></marker><marker markerWidth="10" markerHeight="10" refX="12" refY="5" viewBox="0 0 20 20" orient="auto-start-reverse" id="SvgjsMarker1012"><path d="M0,0 L2,5 L0,10 L10,5 Z" stroke="#333333" fill="#333333"></path></marker><marker markerWidth="10" markerHeight="10" refX="12" refY="5" viewBox="0 0 20 20" orient="auto-start-reverse" id="SvgjsMarker1013"><path d="M0,0 L2,5 L0,10 L10,5 Z" stroke="#333333" fill="#333333"></path></marker><marker markerWidth="10" markerHeight="10" refX="12" refY="5" viewBox="0 0 20 20" orient="auto-start-reverse" id="SvgjsMarker1014"><path d="M0,0 L2,5 L0,10 L10,5 Z" stroke="#333333" fill="#333333"></path></marker><marker markerWidth="10" markerHeight="10" refX="12" refY="5" viewBox="0 0 20 20" orient="auto-start-reverse" id="SvgjsMarker1015"><path d="M0,0 L2,5 L0,10 L10,5 Z" stroke="#333333" fill="#333333"></path></marker><marker markerWidth="10" markerHeight="10" refX="12" refY="5" viewBox="0 0 20 20" orient="auto-start-reverse" id="SvgjsMarker1016"><path d="M0,0 L2,5 L0,10 L10,5 Z" stroke="#333333" fill="#333333"></path></marker><marker markerWidth="10" markerHeight="10" refX="12" refY="5" viewBox="0 0 20 20" orient="auto-start-reverse" id="SvgjsMarker1017"><path d="M0,0 L2,5 L0,10 L10,5 Z" stroke="#333333" fill="#333333"></path></marker><marker markerWidth="10" markerHeight="10" refX="12" refY="5" viewBox="0 0 20 20" orient="auto-start-reverse" id="SvgjsMarker1018"><path d="M0,0 L2,5 L0,10 L10,5 Z" stroke="#333333" fill="#333333"></path></marker><marker markerWidth="10" markerHeight="10" refX="12" refY="5" viewBox="0 0 20 20" orient="auto-start-reverse" id="SvgjsMarker1019"><path d="M0,0 L2,5 L0,10 L10,5 Z" stroke="#333333" fill="#333333"></path></marker><marker markerWidth="10" markerHeight="10" refX="12" refY="5" viewBox="0 0 20 20" orient="auto-start-reverse" id="SvgjsMarker1020"><path d="M0,0 L2,5 L0,10 L10,5 Z" stroke="#333333" fill="#333333"></path></marker><marker markerWidth="10" markerHeight="10" refX="12" refY="5" viewBox="0 0 20 20" orient="auto-start-reverse" id="SvgjsMarker1021"><path d="M0,0 L2,5 L0,10 L10,5 Z" stroke="#333333" fill="#333333"></path></marker><marker markerWidth="10" markerHeight="10" refX="12" refY="5" viewBox="0 0 20 20" orient="auto-start-reverse" id="SvgjsMarker1022"><path d="M0,0 L2,5 L0,10 L10,5 Z" stroke="#333333" fill="#333333"></path></marker><marker markerWidth="10" markerHeight="10" refX="12" refY="5" viewBox="0 0 20 20" orient="auto-start-reverse" id="SvgjsMarker1023"><path d="M0,0 L2,5 L0,10 L10,5 Z" stroke="#333333" fill="#333333"></path></marker><marker markerWidth="10" markerHeight="10" refX="12" refY="5" viewBox="0 0 20 20" orient="auto-start-reverse" id="SvgjsMarker1024"><path d="M0,0 L2,5 L0,10 L10,5 Z" stroke="#333333" fill="#333333"></path></marker><marker markerWidth="10" markerHeight="10" refX="12" refY="5" viewBox="0 0 20 20" orient="auto-start-reverse" id="SvgjsMarker1025"><path d="M0,0 L2,5 L0,10 L10,5 Z" stroke="#333333" fill="#333333"></path></marker><marker markerWidth="10" markerHeight="10" refX="12" refY="5" viewBox="0 0 20 20" orient="auto-start-reverse" id="SvgjsMarker1026"><path d="M0,0 L2,5 L0,10 L10,5 Z" stroke="#333333" fill="#333333"></path></marker><marker markerWidth="10" markerHeight="10" refX="12" refY="5" viewBox="0 0 20 20" orient="auto-start-reverse" id="SvgjsMarker1027"><path d="M0,0 L2,5 L0,10 L10,5 Z" stroke="#333333" fill="#333333"></path></marker><marker markerWidth="10" markerHeight="10" refX="12" refY="5" viewBox="0 0 20 20" orient="auto-start-reverse" id="SvgjsMarker1028"><path d="M0,0 L2,5 L0,10 L10,5 Z" stroke="#333333" fill="#333333"></path></marker><marker markerWidth="10" markerHeight="10" refX="12" refY="5" viewBox="0 0 20 20" orient="auto-start-reverse" id="SvgjsMarker1029"><path d="M0,0 L2,5 L0,10 L10,5 Z" stroke="#333333" fill="#333333"></path></marker><marker markerWidth="10" markerHeight="10" refX="12" refY="5" viewBox="0 0 20 20" orient="auto-start-reverse" id="SvgjsMarker1030"><path d="M0,0 L2,5 L0,10 L10,5 Z" stroke="#333333" fill="#333333"></path></marker><marker markerWidth="10" markerHeight="10" refX="12" refY="5" viewBox="0 0 20 20" orient="auto-start-reverse" id="SvgjsMarker1031"><path d="M0,0 L2,5 L0,10 L10,5 Z" stroke="#333333" fill="#333333"></path></marker><marker markerWidth="10" markerHeight="10" refX="12" refY="5" viewBox="0 0 20 20" orient="auto-start-reverse" id="SvgjsMarker1032"><path d="M0,0 L2,5 L0,10 L10,5 Z" stroke="#333333" fill="#333333"></path></marker><marker markerWidth="10" markerHeight="10" refX="12" refY="5" viewBox="0 0 20 20" orient="auto-start-reverse" id="SvgjsMarker1033"><path d="M0,0 L2,5 L0,10 L10,5 Z" stroke="#333333" fill="#333333"></path></marker><marker markerWidth="10" markerHeight="10" refX="12" refY="5" viewBox="0 0 20 20" orient="auto-start-reverse" id="SvgjsMarker1034"><path d="M0,0 L2,5 L0,10 L10,5 Z" stroke="#333333" fill="#333333"></path></marker><marker markerWidth="10" markerHeight="10" refX="12" refY="5" viewBox="0 0 20 20" orient="auto-start-reverse" id="SvgjsMarker1035"><path d="M0,0 L2,5 L0,10 L10,5 Z" stroke="#333333" fill="#333333"></path></marker><marker markerWidth="10" markerHeight="10" refX="12" refY="5" viewBox="0 0 20 20" orient="auto-start-reverse" id="SvgjsMarker1036"><path d="M0,0 L2,5 L0,10 L10,5 Z" stroke="#333333" fill="#333333"></path></marker><marker markerWidth="10" markerHeight="10" refX="12" refY="5" viewBox="0 0 20 20" orient="auto-start-reverse" id="SvgjsMarker1037"><path d="M0,0 L2,5 L0,10 L10,5 Z" stroke="#333333" fill="#333333"></path></marker><marker markerWidth="10" markerHeight="10" refX="12" refY="5" viewBox="0 0 20 20" orient="auto-start-reverse" id="SvgjsMarker1038"><path d="M0,0 L2,5 L0,10 L10,5 Z" stroke="#333333" fill="#333333"></path></marker><marker markerWidth="10" markerHeight="10" refX="12" refY="5" viewBox="0 0 20 20" orient="auto-start-reverse" id="SvgjsMarker1039"><path d="M0,0 L2,5 L0,10 L10,5 Z" stroke="#333333" fill="#333333"></path></marker><marker markerWidth="10" markerHeight="10" refX="12" refY="5" viewBox="0 0 20 20" orient="auto-start-reverse" id="SvgjsMarker1040"><path d="M0,0 L2,5 L0,10 L10,5 Z" stroke="#333333" fill="#333333"></path></marker><marker markerWidth="10" markerHeight="10" refX="12" refY="5" viewBox="0 0 20 20" orient="auto-start-reverse" id="SvgjsMarker1041"><path d="M0,0 L2,5 L0,10 L10,5 Z" stroke="#333333" fill="#333333"></path></marker><marker markerWidth="10" markerHeight="10" refX="12" refY="5" viewBox="0 0 20 20" orient="auto-start-reverse" id="SvgjsMarker1042"><path d="M0,0 L2,5 L0,10 L10,5 Z" stroke="#333333" fill="#333333"></path></marker><marker markerWidth="10" markerHeight="10" refX="12" refY="5" viewBox="0 0 20 20" orient="auto-start-reverse" id="SvgjsMarker1043"><path d="M0,0 L2,5 L0,10 L10,5 Z" stroke="#333333" fill="#333333"></path></marker><marker markerWidth="10" markerHeight="10" refX="12" refY="5" viewBox="0 0 20 20" orient="auto-start-reverse" id="SvgjsMarker1044"><path d="M0,0 L2,5 L0,10 L10,5 Z" stroke="#333333" fill="#333333"></path></marker><marker markerWidth="10" markerHeight="10" refX="12" refY="5" viewBox="0 0 20 20" orient="auto-start-reverse" id="SvgjsMarker1045"><path d="M0,0 L2,5 L0,10 L10,5 Z" stroke="#333333" fill="#333333"></path></marker><marker markerWidth="10" markerHeight="10" refX="12" refY="5" viewBox="0 0 20 20" orient="auto-start-reverse" id="SvgjsMarker1046"><path d="M0,0 L2,5 L0,10 L10,5 Z" stroke="#333333" fill="#333333"></path></marker><marker markerWidth="10" markerHeight="10" refX="12" refY="5" viewBox="0 0 20 20" orient="auto-start-reverse" id="SvgjsMarker1047"><path d="M0,0 L2,5 L0,10 L10,5 Z" stroke="#333333" fill="#333333"></path></marker><marker markerWidth="10" markerHeight="10" refX="12" refY="5" viewBox="0 0 20 20" orient="auto-start-reverse" id="SvgjsMarker1048"><path d="M0,0 L2,5 L0,10 L10,5 Z" stroke="#333333" fill="#333333"></path></marker><marker markerWidth="10" markerHeight="10" refX="12" refY="5" viewBox="0 0 20 20" orient="auto-start-reverse" id="SvgjsMarker1049"><path d="M0,0 L2,5 L0,10 L10,5 Z" stroke="#333333" fill="#333333"></path></marker><marker markerWidth="10" markerHeight="10" refX="12" refY="5" viewBox="0 0 20 20" orient="auto-start-reverse" id="SvgjsMarker1050"><path d="M0,0 L2,5 L0,10 L10,5 Z" stroke="#333333" fill="#333333"></path></marker><marker markerWidth="10" markerHeight="10" refX="12" refY="5" viewBox="0 0 20 20" orient="auto-start-reverse" id="SvgjsMarker1051"><path d="M0,0 L2,5 L0,10 L10,5 Z" stroke="#333333" fill="#333333"></path></marker><marker markerWidth="10" markerHeight="10" refX="12" refY="5" viewBox="0 0 20 20" orient="auto-start-reverse" id="SvgjsMarker1052"><path d="M0,0 L2,5 L0,10 L10,5 Z" stroke="#333333" fill="#333333"></path></marker><marker markerWidth="10" markerHeight="10" refX="12" refY="5" viewBox="0 0 20 20" orient="auto-start-reverse" id="SvgjsMarker1053"><path d="M0,0 L2,5 L0,10 L10,5 Z" stroke="#333333" fill="#333333"></path></marker><marker markerWidth="10" markerHeight="10" refX="12" refY="5" viewBox="0 0 20 20" orient="auto-start-reverse" id="SvgjsMarker1054"><path d="M0,0 L2,5 L0,10 L10,5 Z" stroke="#333333" fill="#333333"></path></marker><marker markerWidth="10" markerHeight="10" refX="12" refY="5" viewBox="0 0 20 20" orient="auto-start-reverse" id="SvgjsMarker1055"><path d="M0,0 L2,5 L0,10 L10,5 Z" stroke="#333333" fill="#333333"></path></marker><marker markerWidth="10" markerHeight="10" refX="12" refY="5" viewBox="0 0 20 20" orient="auto-start-reverse" id="SvgjsMarker1056"><path d="M0,0 L2,5 L0,10 L10,5 Z" stroke="#333333" fill="#333333"></path></marker><marker markerWidth="10" markerHeight="10" refX="12" refY="5" viewBox="0 0 20 20" orient="auto-start-reverse" id="SvgjsMarker1057"><path d="M0,0 L2,5 L0,10 L10,5 Z" stroke="#333333" fill="#333333"></path></marker><marker markerWidth="10" markerHeight="10" refX="12" refY="5" viewBox="0 0 20 20" orient="auto-start-reverse" id="SvgjsMarker1058"><path d="M0,0 L2,5 L0,10 L10,5 Z" stroke="#333333" fill="#333333"></path></marker><marker markerWidth="10" markerHeight="10" refX="12" refY="5" viewBox="0 0 20 20" orient="auto-start-reverse" id="SvgjsMarker1059"><path d="M0,0 L2,5 L0,10 L10,5 Z" stroke="#333333" fill="#333333"></path></marker><marker markerWidth="10" markerHeight="10" refX="12" refY="5" viewBox="0 0 20 20" orient="auto-start-reverse" id="SvgjsMarker1060"><path d="M0,0 L2,5 L0,10 L10,5 Z" stroke="#333333" fill="#333333"></path></marker><marker markerWidth="10" markerHeight="10" refX="12" refY="5" viewBox="0 0 20 20" orient="auto-start-reverse" id="SvgjsMarker1061"><path d="M0,0 L2,5 L0,10 L10,5 Z" stroke="#333333" fill="#333333"></path></marker><marker markerWidth="10" markerHeight="10" refX="12" refY="5" viewBox="0 0 20 20" orient="auto-start-reverse" id="SvgjsMarker1062"><path d="M0,0 L2,5 L0,10 L10,5 Z" stroke="#333333" fill="#333333"></path></marker><marker markerWidth="10" markerHeight="10" refX="12" refY="5" viewBox="0 0 20 20" orient="auto-start-reverse" id="SvgjsMarker1063"><path d="M0,0 L2,5 L0,10 L10,5 Z" stroke="#333333" fill="#333333"></path></marker><marker markerWidth="10" markerHeight="10" refX="12" refY="5" viewBox="0 0 20 20" orient="auto-start-reverse" id="SvgjsMarker1064"><path d="M0,0 L2,5 L0,10 L10,5 Z" stroke="#333333" fill="#333333"></path></marker><marker markerWidth="10" markerHeight="10" refX="12" refY="5" viewBox="0 0 20 20" orient="auto-start-reverse" id="SvgjsMarker1065"><path d="M0,0 L2,5 L0,10 L10,5 Z" stroke="#333333" fill="#333333"></path></marker><marker markerWidth="10" markerHeight="10" refX="12" refY="5" viewBox="0 0 20 20" orient="auto-start-reverse" id="SvgjsMarker1066"><path d="M0,0 L2,5 L0,10 L10,5 Z" stroke="#333333" fill="#333333"></path></marker><marker markerWidth="10" markerHeight="10" refX="12" refY="5" viewBox="0 0 20 20" orient="auto-start-reverse" id="SvgjsMarker1067"><path d="M0,0 L2,5 L0,10 L10,5 Z" stroke="#333333" fill="#333333"></path></marker><marker markerWidth="10" markerHeight="10" refX="12" refY="5" viewBox="0 0 20 20" orient="auto-start-reverse" id="SvgjsMarker1068"><path d="M0,0 L2,5 L0,10 L10,5 Z" stroke="#333333" fill="#333333"></path></marker><marker markerWidth="10" markerHeight="10" refX="12" refY="5" viewBox="0 0 20 20" orient="auto-start-reverse" id="SvgjsMarker1069"><path d="M0,0 L2,5 L0,10 L10,5 Z" stroke="#333333" fill="#333333"></path></marker><marker markerWidth="10" markerHeight="10" refX="12" refY="5" viewBox="0 0 20 20" orient="auto-start-reverse" id="SvgjsMarker1070"><path d="M0,0 L2,5 L0,10 L10,5 Z" stroke="#333333" fill="#333333"></path></marker><marker markerWidth="10" markerHeight="10" refX="12" refY="5" viewBox="0 0 20 20" orient="auto-start-reverse" id="SvgjsMarker1071"><path d="M0,0 L2,5 L0,10 L10,5 Z" stroke="#333333" fill="#333333"></path></marker><marker markerWidth="10" markerHeight="10" refX="12" refY="5" viewBox="0 0 20 20" orient="auto-start-reverse" id="SvgjsMarker1072"><path d="M0,0 L2,5 L0,10 L10,5 Z" stroke="#333333" fill="#333333"></path></marker><marker markerWidth="10" markerHeight="10" refX="12" refY="5" viewBox="0 0 20 20" orient="auto-start-reverse" id="SvgjsMarker1073"><path d="M0,0 L2,5 L0,10 L10,5 Z" stroke="#333333" fill="#333333"></path></marker><marker markerWidth="10" markerHeight="10" refX="12" refY="5" viewBox="0 0 20 20" orient="auto-start-reverse" id="SvgjsMarker1074"><path d="M0,0 L2,5 L0,10 L10,5 Z" stroke="#333333" fill="#333333"></path></marker><marker markerWidth="10" markerHeight="10" refX="12" refY="5" viewBox="0 0 20 20" orient="auto-start-reverse" id="SvgjsMarker1075"><path d="M0,0 L2,5 L0,10 L10,5 Z" stroke="#333333" fill="#333333"></path></marker><marker markerWidth="10" markerHeight="10" refX="12" refY="5" viewBox="0 0 20 20" orient="auto-start-reverse" id="SvgjsMarker1076"><path d="M0,0 L2,5 L0,10 L10,5 Z" stroke="#333333" fill="#333333"></path></marker><marker markerWidth="10" markerHeight="10" refX="12" refY="5" viewBox="0 0 20 20" orient="auto-start-reverse" id="SvgjsMarker1077"><path d="M0,0 L2,5 L0,10 L10,5 Z" stroke="#333333" fill="#333333"></path></marker><marker markerWidth="10" markerHeight="10" refX="12" refY="5" viewBox="0 0 20 20" orient="auto-start-reverse" id="SvgjsMarker1078"><path d="M0,0 L2,5 L0,10 L10,5 Z" stroke="#333333" fill="#333333"></path></marker><marker markerWidth="10" markerHeight="10" refX="12" refY="5" viewBox="0 0 20 20" orient="auto-start-reverse" id="SvgjsMarker1079"><path d="M0,0 L2,5 L0,10 L10,5 Z" stroke="#333333" fill="#333333"></path></marker><marker markerWidth="10" markerHeight="10" refX="12" refY="5" viewBox="0 0 20 20" orient="auto-start-reverse" id="SvgjsMarker1080"><path d="M0,0 L2,5 L0,10 L10,5 Z" stroke="#333333" fill="#333333"></path></marker><marker markerWidth="10" markerHeight="10" refX="12" refY="5" viewBox="0 0 20 20" orient="auto-start-reverse" id="SvgjsMarker1081"><path d="M0,0 L2,5 L0,10 L10,5 Z" stroke="#333333" fill="#333333"></path></marker><marker markerWidth="10" markerHeight="10" refX="12" refY="5" viewBox="0 0 20 20" orient="auto-start-reverse" id="SvgjsMarker1082"><path d="M0,0 L2,5 L0,10 L10,5 Z" stroke="#333333" fill="#333333"></path></marker><marker markerWidth="10" markerHeight="10" refX="12" refY="5" viewBox="0 0 20 20" orient="auto-start-reverse" id="SvgjsMarker1083"><path d="M0,0 L2,5 L0,10 L10,5 Z" stroke="#333333" fill="#333333"></path></marker><marker markerWidth="10" markerHeight="10" refX="12" refY="5" viewBox="0 0 20 20" orient="auto-start-reverse" id="SvgjsMarker1084"><path d="M0,0 L2,5 L0,10 L10,5 Z" stroke="#333333" fill="#333333"></path></marker><marker markerWidth="10" markerHeight="10" refX="12" refY="5" viewBox="0 0 20 20" orient="auto-start-reverse" id="SvgjsMarker1085"><path d="M0,0 L2,5 L0,10 L10,5 Z" stroke="#333333" fill="#333333"></path></marker><marker markerWidth="10" markerHeight="10" refX="12" refY="5" viewBox="0 0 20 20" orient="auto-start-reverse" id="SvgjsMarker1086"><path d="M0,0 L2,5 L0,10 L10,5 Z" stroke="#333333" fill="#333333"></path></marker><marker markerWidth="10" markerHeight="10" refX="12" refY="5" viewBox="0 0 20 20" orient="auto-start-reverse" id="SvgjsMarker1087"><path d="M0,0 L2,5 L0,10 L10,5 Z" stroke="#333333" fill="#333333"></path></marker><marker markerWidth="10" markerHeight="10" refX="12" refY="5" viewBox="0 0 20 20" orient="auto-start-reverse" id="SvgjsMarker1088"><path d="M0,0 L2,5 L0,10 L10,5 Z" stroke="#333333" fill="#333333"></path></marker><marker markerWidth="10" markerHeight="10" refX="12" refY="5" viewBox="0 0 20 20" orient="auto-start-reverse" id="SvgjsMarker1089"><path d="M0,0 L2,5 L0,10 L10,5 Z" stroke="#333333" fill="#333333"></path></marker></defs><style>
  /* 鼠标hover和激活时渲染的矩形 */
  .smm-hover-node{
    display: none;
    opacity: 0.6;
    stroke-width: 1;
  }

  .smm-node:not(.smm-node-dragging):hover .smm-hover-node{
    display: block;
  }

  .smm-node.active .smm-hover-node, .smm-node-highlight .smm-hover-node{
    display: block;
    opacity: 1;
    stroke-width: 2;
  }

  .smm-text-node-wrap, .smm-expand-btn-text {
    user-select: none;
  }

  .smm-desctext-node-wrap {
    word-break: break-all;
    user-select: none;
  }

      .smm-richtext-node-wrap {
        word-break: break-all;
        user-select: none;
      }

      .ql-editor .ql-align-left, 
      .smm-richtext-node-wrap .ql-align-left {
        text-align: left;
      }

      .smm-richtext-node-wrap .ql-align-right {
        text-align: right;
      }

      .smm-richtext-node-wrap .ql-align-center {
        text-align: center;
      }
      </style></svg>