<svg xmlns="http://www.w3.org/2000/svg" version="1.1" xmlns:xlink="http://www.w3.org/1999/xlink" xmlns:svgjs="http://svgjs.dev/svgjs" width="817.5" height="609.5" style="background-color: rgb(241, 241, 241);"><title>plane</title><g class="smm-container" transform="matrix(1,0,0,1,-591,-97)"><g class="smm-line-container"><path d="M 700,400.5L 762.4,400.5L 762.4,255.5Q 762.4,250.5 767.4,250.5L 804,250.5" stroke-dasharray="none" stroke-width="2" stroke="#1e3556" fill="none"></path><path d="M 700,400.5L 762.4,400.5L 762.4,499.5Q 762.4,504.5 767.4,504.5L 804,504.5" stroke-dasharray="none" stroke-width="2" stroke="#1e3556" fill="none"></path><path d="M 700,400.5L 762.4,400.5L 762.4,649.5Q 762.4,654.5 767.4,654.5L 804,654.5" stroke-dasharray="none" stroke-width="2" stroke="#1e3556" fill="none"></path><path d="M 873,250.5L 905.4,250.5L 905.4,151.5Q 905.4,146.5 910.4,146.5L 927,146.5" stroke-dasharray="none" stroke-width="2" stroke="#1e3556" fill="none"></path><path d="M 873,250.5L 905.4,250.5L 905.4,229.5Q 905.4,224.5 910.4,224.5L 927,224.5" stroke-dasharray="none" stroke-width="2" stroke="#1e3556" fill="none"></path><path d="M 987,146.5L 1019.4,146.5L 1019.4,125.5Q 1019.4,120.5 1024.4,120.5L 1041,120.5" stroke-dasharray="none" stroke-width="2" stroke="#1e3556" fill="none"></path><path d="M 873,250.5L 905.4,250.5L 905.4,271.5Q 905.4,276.5 910.4,276.5L 927,276.5" stroke-dasharray="none" stroke-width="2" stroke="#1e3556" fill="none"></path><path d="M 987,224.5L 1019.4,224.5L 1019.4,224.5L 1041,224.5" stroke-dasharray="none" stroke-width="2" stroke="#1e3556" fill="none"></path><path d="M 987,276.5L 1019.4,276.5L 1019.4,276.5L 1041,276.5" stroke-dasharray="none" stroke-width="2" stroke="#1e3556" fill="none"></path><path d="M 873,250.5L 905.4,250.5L 905.4,349.5Q 905.4,354.5 910.4,354.5L 927,354.5" stroke-dasharray="none" stroke-width="2" stroke="#1e3556" fill="none"></path><path d="M 987,146.5L 1019.4,146.5L 1019.4,167.5Q 1019.4,172.5 1024.4,172.5L 1041,172.5" stroke-dasharray="none" stroke-width="2" stroke="#1e3556" fill="none"></path><path d="M 987,354.5L 1019.4,354.5L 1019.4,333.5Q 1019.4,328.5 1024.4,328.5L 1041,328.5" stroke-dasharray="none" stroke-width="2" stroke="#1e3556" fill="none"></path><path d="M 987,354.5L 1019.4,354.5L 1019.4,375.5Q 1019.4,380.5 1024.4,380.5L 1041,380.5" stroke-dasharray="none" stroke-width="2" stroke="#1e3556" fill="none"></path><path d="M 873,504.5L 905.4,504.5L 905.4,457.5Q 905.4,452.5 910.4,452.5L 927,452.5" stroke-dasharray="none" stroke-width="2" stroke="#1e3556" fill="none"></path><path d="M 873,504.5L 905.4,504.5L 905.4,525.5Q 905.4,530.5 910.4,530.5L 927,530.5" stroke-dasharray="none" stroke-width="2" stroke="#1e3556" fill="none"></path><path d="M 987,530.5L 1019.4,530.5L 1019.4,509.5Q 1019.4,504.5 1024.4,504.5L 1041,504.5" stroke-dasharray="none" stroke-width="2" stroke="#1e3556" fill="none"></path><path d="M 987,530.5L 1019.4,530.5L 1019.4,551.5Q 1019.4,556.5 1024.4,556.5L 1041,556.5" stroke-dasharray="none" stroke-width="2" stroke="#1e3556" fill="none"></path><path d="M 1129,556.5L 1161.4,556.5L 1161.4,556.5L 1183,556.5" stroke-dasharray="none" stroke-width="2" stroke="#1e3556" fill="none"></path><path d="M 987,452.5L 1019.4,452.5L 1019.4,452.5L 1041,452.5" stroke-dasharray="none" stroke-width="2" stroke="#1e3556" fill="none"></path><path d="M 1129,504.5L 1161.4,504.5L 1161.4,504.5L 1183,504.5" stroke-dasharray="none" stroke-width="2" stroke="#1e3556" fill="none"></path><path d="M 1285,556.5L 1317.4,556.5L 1317.4,556.5L 1339,556.5" stroke-dasharray="none" stroke-width="2" stroke="#1e3556" fill="none"></path><path d="M 873,654.5L 905.4,654.5L 905.4,633.5Q 905.4,628.5 910.4,628.5L 927,628.5" stroke-dasharray="none" stroke-width="2" stroke="#1e3556" fill="none"></path><path d="M 873,654.5L 905.4,654.5L 905.4,675.5Q 905.4,680.5 910.4,680.5L 927,680.5" stroke-dasharray="none" stroke-width="2" stroke="#1e3556" fill="none"></path></g><g class="smm-outer-frame-container"></g><g class="smm-node-container"><g class="smm-node" transform="matrix(1,0,0,1,600,380)" style="cursor: default;"><path d="
      M10,0
      L88,0
      C88,0 98,0 98,10
      L98,29
      C98,29 98,39 88,39
      L10,39
      C10,39 0,39 0,29
      L0,10
      C0,10 0,0 10,0
      Z
    " class="smm-node-shape" transform="matrix(1,0,0,1,1,1)" fill="#1e3556" stroke-dasharray="none" stroke-width="2" stroke="#bdc5c9"></path><g transform="matrix(1,0,0,1,16,6)"><g data-width="68" data-height="29" data-offsetx="0"><foreignObject width="68" height="29" x="0" y="0" style="line-height: 1.2; font-family: 微软雅黑, &quot;Microsoft YaHei&quot;; font-size: 24px; font-weight: bold; font-style: normal; text-decoration: none; color: rgb(255, 255, 255); text-align: left;"><div class="smm-richtext-node-wrap" xmlns="http://www.w3.org/1999/xhtml" style="max-width: 500px;"><p>Plane</p></div><style>
    * {
      margin: 0;
      padding: 0;
      box-sizing: border-box;
    }
  </style></foreignObject></g></g><rect width="104" height="45" x="-2" y="-2" class="smm-hover-node" rx="5" ry="5" fill="none" stroke="#5ec8f8"></rect></g><g class="smm-node" transform="matrix(1,0,0,1,804,233.5)" style="cursor: default;"><path d="
      M10,0
      L57,0
      C57,0 67,0 67,10
      L67,22
      C67,22 67,32 57,32
      L10,32
      C10,32 0,32 0,22
      L0,10
      C0,10 0,0 10,0
      Z
    " class="smm-node-shape" transform="matrix(1,0,0,1,1,1)" fill="#a9dada" stroke-dasharray="none" stroke-width="2" stroke="#1e3556"></path><g transform="matrix(1,0,0,1,16,6)"><g data-width="37" data-height="22" data-offsetx="0"><foreignObject width="37" height="22" x="0" y="0" style="line-height: 1.2; font-family: 微软雅黑, &quot;Microsoft YaHei&quot;; font-size: 18px; font-weight: normal; font-style: normal; text-decoration: none; color: rgb(255, 255, 255); text-align: left;"><div class="smm-richtext-node-wrap" xmlns="http://www.w3.org/1999/xhtml" style="max-width: 500px;"><p>飞机</p></div></foreignObject></g></g><rect width="73" height="38" x="-2" y="-2" class="smm-hover-node" rx="5" ry="5" fill="none" stroke="#5ec8f8"></rect><rect fill="transparent" width="20" height="34" x="69" y="0"></rect></g><g class="smm-node" transform="matrix(1,0,0,1,804,487.5)" style="cursor: default;"><path d="
      M10,0
      L57,0
      C57,0 67,0 67,10
      L67,22
      C67,22 67,32 57,32
      L10,32
      C10,32 0,32 0,22
      L0,10
      C0,10 0,0 10,0
      Z
    " class="smm-node-shape" transform="matrix(1,0,0,1,1,1)" fill="#a9dada" stroke-dasharray="none" stroke-width="2" stroke="#1e3556"></path><g transform="matrix(1,0,0,1,16,6)"><g data-width="37" data-height="22" data-offsetx="0"><foreignObject width="37" height="22" x="0" y="0" style="line-height: 1.2; font-family: 微软雅黑, &quot;Microsoft YaHei&quot;; font-size: 18px; font-weight: normal; font-style: normal; text-decoration: none; color: rgb(255, 255, 255); text-align: left;"><div class="smm-richtext-node-wrap" xmlns="http://www.w3.org/1999/xhtml" style="max-width: 500px;"><p>敌人</p></div></foreignObject></g></g><rect width="73" height="38" x="-2" y="-2" class="smm-hover-node" rx="5" ry="5" fill="none" stroke="#5ec8f8"></rect><rect fill="transparent" width="20" height="34" x="69" y="0"></rect></g><g class="smm-node" transform="matrix(1,0,0,1,804,637.5)" style="cursor: default;"><path d="
      M10,0
      L57,0
      C57,0 67,0 67,10
      L67,22
      C67,22 67,32 57,32
      L10,32
      C10,32 0,32 0,22
      L0,10
      C0,10 0,0 10,0
      Z
    " class="smm-node-shape" transform="matrix(1,0,0,1,1,1)" fill="#a9dada" stroke-dasharray="none" stroke-width="2" stroke="#1e3556"></path><g transform="matrix(1,0,0,1,16,6)"><g data-width="37" data-height="22" data-offsetx="0"><foreignObject width="37" height="22" x="0" y="0" style="line-height: 1.2; font-family: 微软雅黑, &quot;Microsoft YaHei&quot;; font-size: 18px; font-weight: normal; font-style: normal; text-decoration: none; color: rgb(255, 255, 255); text-align: left;"><div class="smm-richtext-node-wrap" xmlns="http://www.w3.org/1999/xhtml" style="max-width: 500px;"><p>分数</p></div></foreignObject></g></g><rect width="73" height="38" x="-2" y="-2" class="smm-hover-node" rx="5" ry="5" fill="none" stroke="#5ec8f8"></rect><rect fill="transparent" width="20" height="34" x="69" y="0"></rect></g><g class="smm-node" transform="matrix(1,0,0,1,927,132.5)" style="cursor: default;"><path d="
      M5,0
      L54,0
      C54,0 59,0 59,5
      L59,22
      C59,22 59,27 54,27
      L5,27
      C5,27 0,27 0,22
      L0,5
      C0,5 0,0 5,0
      Z
    " class="smm-node-shape" transform="matrix(1,0,0,1,0.5,0.5)" fill="transparent" stroke-dasharray="none" stroke-width="1" stroke="#1e3556"></path><rect fill="transparent" width="20" height="28" x="60" y="0"></rect><g transform="matrix(1,0,0,1,15.5,5.5)"><g data-width="29" data-height="17" data-offsetx="0"><foreignObject width="29" height="17" x="0" y="0" style="line-height: 1.2; font-family: 微软雅黑, &quot;Microsoft YaHei&quot;; font-size: 14px; font-weight: normal; font-style: normal; text-decoration: none; color: rgb(30, 53, 86); text-align: left;"><div class="smm-richtext-node-wrap" xmlns="http://www.w3.org/1999/xhtml" style="max-width: 500px;"><p>攻击</p></div></foreignObject></g></g><rect width="64" height="32" x="-2" y="-2" class="smm-hover-node" rx="5" ry="5" fill="none" stroke="#5ec8f8"></rect></g><g class="smm-node" transform="matrix(1,0,0,1,927,210.5)" style="cursor: default;"><path d="
      M5,0
      L54,0
      C54,0 59,0 59,5
      L59,22
      C59,22 59,27 54,27
      L5,27
      C5,27 0,27 0,22
      L0,5
      C0,5 0,0 5,0
      Z
    " class="smm-node-shape" transform="matrix(1,0,0,1,0.5,0.5)" fill="transparent" stroke-dasharray="none" stroke-width="1" stroke="#1e3556"></path><g transform="matrix(1,0,0,1,15.5,5.5)"><g data-width="29" data-height="17" data-offsetx="0"><foreignObject width="29" height="17" x="0" y="0" style="line-height: 1.2; font-family: 微软雅黑, &quot;Microsoft YaHei&quot;; font-size: 14px; font-weight: normal; font-style: normal; text-decoration: none; color: rgb(30, 53, 86); text-align: left;"><div class="smm-richtext-node-wrap" xmlns="http://www.w3.org/1999/xhtml" style="max-width: 500px;"><p>位置</p></div></foreignObject></g></g><rect width="64" height="32" x="-2" y="-2" class="smm-hover-node" rx="5" ry="5" fill="none" stroke="#5ec8f8"></rect><rect fill="transparent" width="20" height="28" x="60" y="0"></rect></g><g class="smm-node" transform="matrix(1,0,0,1,1041,106.5)" style="cursor: default;"><path d="
      M5,0
      L82,0
      C82,0 87,0 87,5
      L87,22
      C87,22 87,27 82,27
      L5,27
      C5,27 0,27 0,22
      L0,5
      C0,5 0,0 5,0
      Z
    " class="smm-node-shape" transform="matrix(1,0,0,1,0.5,0.5)" fill="transparent" stroke-dasharray="none" stroke-width="1" stroke="#1e3556"></path><g transform="matrix(1,0,0,1,15.5,5.5)"><g data-width="57" data-height="17" data-offsetx="0"><foreignObject width="57" height="17" x="0" y="0" style="line-height: 1.2; font-family: 微软雅黑, &quot;Microsoft YaHei&quot;; font-size: 14px; font-weight: normal; font-style: normal; text-decoration: none; color: rgb(30, 53, 86); text-align: left;"><div class="smm-richtext-node-wrap" xmlns="http://www.w3.org/1999/xhtml" style="max-width: 500px;"><p>子弹数量</p></div></foreignObject></g></g><rect width="92" height="32" x="-2" y="-2" class="smm-hover-node" rx="5" ry="5" fill="none" stroke="#5ec8f8"></rect></g><g class="smm-node" transform="matrix(1,0,0,1,927,262.5)" style="cursor: default;"><path d="
      M5,0
      L54,0
      C54,0 59,0 59,5
      L59,22
      C59,22 59,27 54,27
      L5,27
      C5,27 0,27 0,22
      L0,5
      C0,5 0,0 5,0
      Z
    " class="smm-node-shape" transform="matrix(1,0,0,1,0.5,0.5)" fill="transparent" stroke-dasharray="none" stroke-width="1" stroke="#1e3556"></path><g transform="matrix(1,0,0,1,15.5,5.5)"><g data-width="29" data-height="17" data-offsetx="0"><foreignObject width="29" height="17" x="0" y="0" style="line-height: 1.2; font-family: 微软雅黑, &quot;Microsoft YaHei&quot;; font-size: 14px; font-weight: normal; font-style: normal; text-decoration: none; color: rgb(30, 53, 86); text-align: left;"><div class="smm-richtext-node-wrap" xmlns="http://www.w3.org/1999/xhtml" style="max-width: 500px;"><p>生命 </p></div></foreignObject></g></g><rect width="64" height="32" x="-2" y="-2" class="smm-hover-node" rx="5" ry="5" fill="none" stroke="#5ec8f8"></rect><rect fill="transparent" width="20" height="28" x="60" y="0"></rect></g><g class="smm-node" transform="matrix(1,0,0,1,1041,210.5)" style="cursor: default;"><path d="
      M5,0
      L226,0
      C226,0 231,0 231,5
      L231,22
      C231,22 231,27 226,27
      L5,27
      C5,27 0,27 0,22
      L0,5
      C0,5 0,0 5,0
      Z
    " class="smm-node-shape" transform="matrix(1,0,0,1,0.5,0.5)" fill="transparent" stroke-dasharray="none" stroke-width="1" stroke="#1e3556"></path><g transform="matrix(1,0,0,1,15.5,5.5)"><g data-width="201" data-height="17" data-offsetx="0"><foreignObject width="201" height="17" x="0" y="0" style="line-height: 1.2; font-family: 微软雅黑, &quot;Microsoft YaHei&quot;; font-size: 14px; font-weight: normal; font-style: normal; text-decoration: none; color: rgb(30, 53, 86); text-align: left;"><div class="smm-richtext-node-wrap" xmlns="http://www.w3.org/1999/xhtml" style="max-width: 500px;"><p>用键盘方向键控制位置即x,y坐标</p></div></foreignObject></g></g><rect width="236" height="32" x="-2" y="-2" class="smm-hover-node" rx="5" ry="5" fill="none" stroke="#5ec8f8"></rect></g><g class="smm-node" transform="matrix(1,0,0,1,1041,262.5)" style="cursor: default;"><path d="
      M5,0
      L267,0
      C267,0 272,0 272,5
      L272,22
      C272,22 272,27 267,27
      L5,27
      C5,27 0,27 0,22
      L0,5
      C0,5 0,0 5,0
      Z
    " class="smm-node-shape" transform="matrix(1,0,0,1,0.5,0.5)" fill="transparent" stroke-dasharray="none" stroke-width="1" stroke="#1e3556"></path><g transform="matrix(1,0,0,1,15.5,5.5)"><g data-width="242" data-height="17" data-offsetx="0"><foreignObject width="242" height="17" x="0" y="0" style="line-height: 1.2; font-family: 微软雅黑, &quot;Microsoft YaHei&quot;; font-size: 14px; font-weight: normal; font-style: normal; text-decoration: none; color: rgb(30, 53, 86); text-align: left;"><div class="smm-richtext-node-wrap" xmlns="http://www.w3.org/1999/xhtml" style="max-width: 500px;"><p>被攻击 损失生命 ，生命为0，游戏结束</p></div></foreignObject></g></g><rect width="277" height="32" x="-2" y="-2" class="smm-hover-node" rx="5" ry="5" fill="none" stroke="#5ec8f8"></rect></g><g class="smm-node" transform="matrix(1,0,0,1,927,340.5)" style="cursor: default;"><path d="
      M5,0
      L54,0
      C54,0 59,0 59,5
      L59,22
      C59,22 59,27 54,27
      L5,27
      C5,27 0,27 0,22
      L0,5
      C0,5 0,0 5,0
      Z
    " class="smm-node-shape" transform="matrix(1,0,0,1,0.5,0.5)" fill="transparent" stroke-dasharray="none" stroke-width="1" stroke="#1e3556"></path><g transform="matrix(1,0,0,1,15.5,5.5)"><g data-width="29" data-height="17" data-offsetx="0"><foreignObject width="29" height="17" x="0" y="0" style="line-height: 1.2; font-family: 微软雅黑, &quot;Microsoft YaHei&quot;; font-size: 14px; font-weight: normal; font-style: normal; text-decoration: none; color: rgb(30, 53, 86); text-align: left;"><div class="smm-richtext-node-wrap" xmlns="http://www.w3.org/1999/xhtml" style="max-width: 500px;"><p>道具</p></div></foreignObject></g></g><rect width="64" height="32" x="-2" y="-2" class="smm-hover-node" rx="5" ry="5" fill="none" stroke="#5ec8f8"></rect><rect fill="transparent" width="20" height="28" x="60" y="0"></rect></g><g class="smm-node" transform="matrix(1,0,0,1,1041,158.5)" style="cursor: default;"><path d="
      M5,0
      L68,0
      C68,0 73,0 73,5
      L73,22
      C73,22 73,27 68,27
      L5,27
      C5,27 0,27 0,22
      L0,5
      C0,5 0,0 5,0
      Z
    " class="smm-node-shape" transform="matrix(1,0,0,1,0.5,0.5)" fill="transparent" stroke-dasharray="none" stroke-width="1" stroke="#1e3556"></path><g transform="matrix(1,0,0,1,15.5,5.5)"><g data-width="43" data-height="17" data-offsetx="0"><foreignObject width="43" height="17" x="0" y="0" style="line-height: 1.2; font-family: 微软雅黑, &quot;Microsoft YaHei&quot;; font-size: 14px; font-weight: normal; font-style: normal; text-decoration: none; color: rgb(30, 53, 86); text-align: left;"><div class="smm-richtext-node-wrap" xmlns="http://www.w3.org/1999/xhtml" style="max-width: 500px;"><p>攻击力</p></div></foreignObject></g></g><rect width="78" height="32" x="-2" y="-2" class="smm-hover-node" rx="5" ry="5" fill="none" stroke="#5ec8f8"></rect></g><g class="smm-node" transform="matrix(1,0,0,1,1041,314.5)" style="cursor: default;"><path d="
      M5,0
      L54,0
      C54,0 59,0 59,5
      L59,22
      C59,22 59,27 54,27
      L5,27
      C5,27 0,27 0,22
      L0,5
      C0,5 0,0 5,0
      Z
    " class="smm-node-shape" transform="matrix(1,0,0,1,0.5,0.5)" fill="transparent" stroke-dasharray="none" stroke-width="1" stroke="#1e3556"></path><g transform="matrix(1,0,0,1,15.5,5.5)"><g data-width="29" data-height="17" data-offsetx="0"><foreignObject width="29" height="17" x="0" y="0" style="line-height: 1.2; font-family: 微软雅黑, &quot;Microsoft YaHei&quot;; font-size: 14px; font-weight: normal; font-style: normal; text-decoration: none; color: rgb(30, 53, 86); text-align: left;"><div class="smm-richtext-node-wrap" xmlns="http://www.w3.org/1999/xhtml" style="max-width: 500px;"><p>油箱</p></div></foreignObject></g></g><rect width="64" height="32" x="-2" y="-2" class="smm-hover-node" rx="5" ry="5" fill="none" stroke="#5ec8f8"></rect></g><g class="smm-node" transform="matrix(1,0,0,1,1041,366.5)" style="cursor: default;"><path d="
      M5,0
      L82,0
      C82,0 87,0 87,5
      L87,22
      C87,22 87,27 82,27
      L5,27
      C5,27 0,27 0,22
      L0,5
      C0,5 0,0 5,0
      Z
    " class="smm-node-shape" transform="matrix(1,0,0,1,0.5,0.5)" fill="transparent" stroke-dasharray="none" stroke-width="1" stroke="#1e3556"></path><g transform="matrix(1,0,0,1,15.5,5.5)"><g data-width="57" data-height="17" data-offsetx="0"><foreignObject width="57" height="17" x="0" y="0" style="line-height: 1.2; font-family: 微软雅黑, &quot;Microsoft YaHei&quot;; font-size: 14px; font-weight: normal; font-style: normal; text-decoration: none; color: rgb(30, 53, 86); text-align: left;"><div class="smm-richtext-node-wrap" xmlns="http://www.w3.org/1999/xhtml" style="max-width: 500px;"><p>子弹扩充</p></div></foreignObject></g></g><rect width="92" height="32" x="-2" y="-2" class="smm-hover-node" rx="5" ry="5" fill="none" stroke="#5ec8f8"></rect></g><g class="smm-node" transform="matrix(1,0,0,1,927,438.5)" style="cursor: default;"><path d="
      M5,0
      L54,0
      C54,0 59,0 59,5
      L59,22
      C59,22 59,27 54,27
      L5,27
      C5,27 0,27 0,22
      L0,5
      C0,5 0,0 5,0
      Z
    " class="smm-node-shape" transform="matrix(1,0,0,1,0.5,0.5)" fill="transparent" stroke-dasharray="none" stroke-width="1" stroke="#1e3556"></path><g transform="matrix(1,0,0,1,15.5,5.5)"><g data-width="29" data-height="17" data-offsetx="0"><foreignObject width="29" height="17" x="0" y="0" style="line-height: 1.2; font-family: 微软雅黑, &quot;Microsoft YaHei&quot;; font-size: 14px; font-weight: normal; font-style: normal; text-decoration: none; color: rgb(30, 53, 86); text-align: left;"><div class="smm-richtext-node-wrap" xmlns="http://www.w3.org/1999/xhtml" style="max-width: 500px;"><p>位置</p></div></foreignObject></g></g><rect width="64" height="32" x="-2" y="-2" class="smm-hover-node" rx="5" ry="5" fill="none" stroke="#5ec8f8"></rect><rect fill="transparent" width="20" height="28" x="60" y="0"></rect></g><g class="smm-node" transform="matrix(1,0,0,1,927,516.5)" style="cursor: default;"><path d="
      M5,0
      L54,0
      C54,0 59,0 59,5
      L59,22
      C59,22 59,27 54,27
      L5,27
      C5,27 0,27 0,22
      L0,5
      C0,5 0,0 5,0
      Z
    " class="smm-node-shape" transform="matrix(1,0,0,1,0.5,0.5)" fill="transparent" stroke-dasharray="none" stroke-width="1" stroke="#1e3556"></path><g transform="matrix(1,0,0,1,15.5,5.5)"><g data-width="29" data-height="17" data-offsetx="0"><foreignObject width="29" height="17" x="0" y="0" style="line-height: 1.2; font-family: 微软雅黑, &quot;Microsoft YaHei&quot;; font-size: 14px; font-weight: normal; font-style: normal; text-decoration: none; color: rgb(30, 53, 86); text-align: left;"><div class="smm-richtext-node-wrap" xmlns="http://www.w3.org/1999/xhtml" style="max-width: 500px;"><p>种类</p></div></foreignObject></g></g><rect width="64" height="32" x="-2" y="-2" class="smm-hover-node" rx="5" ry="5" fill="none" stroke="#5ec8f8"></rect><rect fill="transparent" width="20" height="28" x="60" y="0"></rect></g><g class="smm-node" transform="matrix(1,0,0,1,1041,490.5)" style="cursor: default;"><path d="
      M5,0
      L82,0
      C82,0 87,0 87,5
      L87,22
      C87,22 87,27 82,27
      L5,27
      C5,27 0,27 0,22
      L0,5
      C0,5 0,0 5,0
      Z
    " class="smm-node-shape" transform="matrix(1,0,0,1,0.5,0.5)" fill="transparent" stroke-dasharray="none" stroke-width="1" stroke="#1e3556"></path><g transform="matrix(1,0,0,1,15.5,5.5)"><g data-width="57" data-height="17" data-offsetx="0"><foreignObject width="57" height="17" x="0" y="0" style="line-height: 1.2; font-family: 微软雅黑, &quot;Microsoft YaHei&quot;; font-size: 14px; font-weight: normal; font-style: normal; text-decoration: none; color: rgb(30, 53, 86); text-align: left;"><div class="smm-richtext-node-wrap" xmlns="http://www.w3.org/1999/xhtml" style="max-width: 500px;"><p>普通敌人</p></div></foreignObject></g></g><rect width="92" height="32" x="-2" y="-2" class="smm-hover-node" rx="5" ry="5" fill="none" stroke="#5ec8f8"></rect><rect fill="transparent" width="20" height="28" x="88" y="0"></rect></g><g class="smm-node" transform="matrix(1,0,0,1,1041,542.5)" style="cursor: default;"><path d="
      M5,0
      L82,0
      C82,0 87,0 87,5
      L87,22
      C87,22 87,27 82,27
      L5,27
      C5,27 0,27 0,22
      L0,5
      C0,5 0,0 5,0
      Z
    " class="smm-node-shape" transform="matrix(1,0,0,1,0.5,0.5)" fill="transparent" stroke-dasharray="none" stroke-width="1" stroke="#1e3556"></path><g transform="matrix(1,0,0,1,15.5,5.5)"><g data-width="57" data-height="17" data-offsetx="0"><foreignObject width="57" height="17" x="0" y="0" style="line-height: 1.2; font-family: 微软雅黑, &quot;Microsoft YaHei&quot;; font-size: 14px; font-weight: normal; font-style: normal; text-decoration: none; color: rgb(30, 53, 86); text-align: left;"><div class="smm-richtext-node-wrap" xmlns="http://www.w3.org/1999/xhtml" style="max-width: 500px;"><p>进阶敌人</p></div></foreignObject></g></g><rect width="92" height="32" x="-2" y="-2" class="smm-hover-node" rx="5" ry="5" fill="none" stroke="#5ec8f8"></rect><rect fill="transparent" width="20" height="28" x="88" y="0"></rect></g><g class="smm-node" transform="matrix(1,0,0,1,1183,542.5)" style="cursor: default;"><path d="
      M5,0
      L96,0
      C96,0 101,0 101,5
      L101,22
      C101,22 101,27 96,27
      L5,27
      C5,27 0,27 0,22
      L0,5
      C0,5 0,0 5,0
      Z
    " class="smm-node-shape" transform="matrix(1,0,0,1,0.5,0.5)" fill="transparent" stroke-dasharray="none" stroke-width="1" stroke="#1e3556"></path><g transform="matrix(1,0,0,1,15.5,5.5)"><g data-width="71" data-height="17" data-offsetx="0"><foreignObject width="71" height="17" x="0" y="0" style="line-height: 1.2; font-family: 微软雅黑, &quot;Microsoft YaHei&quot;; font-size: 14px; font-weight: normal; font-style: normal; text-decoration: none; color: rgb(30, 53, 86); text-align: left;"><div class="smm-richtext-node-wrap" xmlns="http://www.w3.org/1999/xhtml" style="max-width: 500px;"><p>生命值外显</p></div></foreignObject></g></g><rect width="106" height="32" x="-2" y="-2" class="smm-hover-node" rx="5" ry="5" fill="none" stroke="#5ec8f8"></rect><rect fill="transparent" width="20" height="28" x="102" y="0"></rect></g><g class="smm-node" transform="matrix(1,0,0,1,1041,438.5)" style="cursor: default;"><path d="
      M5,0
      L230,0
      C230,0 235,0 235,5
      L235,22
      C235,22 235,27 230,27
      L5,27
      C5,27 0,27 0,22
      L0,5
      C0,5 0,0 5,0
      Z
    " class="smm-node-shape" transform="matrix(1,0,0,1,0.5,0.5)" fill="transparent" stroke-dasharray="none" stroke-width="1" stroke="#1e3556"></path><g transform="matrix(1,0,0,1,15.5,5.5)"><g data-width="205" data-height="17" data-offsetx="0"><foreignObject width="205" height="17" x="0" y="0" style="line-height: 1.2; font-family: 微软雅黑, &quot;Microsoft YaHei&quot;; font-size: 14px; font-weight: normal; font-style: normal; text-decoration: none; color: rgb(30, 53, 86); text-align: left;"><div class="smm-richtext-node-wrap" xmlns="http://www.w3.org/1999/xhtml" style="max-width: 500px;"><p>随机出现在屏幕上方，且y值减少</p></div></foreignObject></g></g><rect width="240" height="32" x="-2" y="-2" class="smm-hover-node" rx="5" ry="5" fill="none" stroke="#5ec8f8"></rect></g><g class="smm-node" transform="matrix(1,0,0,1,1183,490.5)" style="cursor: default;"><path d="
      M5,0
      L54,0
      C54,0 59,0 59,5
      L59,22
      C59,22 59,27 54,27
      L5,27
      C5,27 0,27 0,22
      L0,5
      C0,5 0,0 5,0
      Z
    " class="smm-node-shape" transform="matrix(1,0,0,1,0.5,0.5)" fill="transparent" stroke-dasharray="none" stroke-width="1" stroke="#1e3556"></path><g transform="matrix(1,0,0,1,15.5,5.5)"><g data-width="29" data-height="17" data-offsetx="0"><foreignObject width="29" height="17" x="0" y="0" style="line-height: 1.2; font-family: 微软雅黑, &quot;Microsoft YaHei&quot;; font-size: 14px; font-weight: normal; font-style: normal; text-decoration: none; color: rgb(30, 53, 86); text-align: left;"><div class="smm-richtext-node-wrap" xmlns="http://www.w3.org/1999/xhtml" style="max-width: 500px;"><p>分数</p></div></foreignObject></g></g><rect width="64" height="32" x="-2" y="-2" class="smm-hover-node" rx="5" ry="5" fill="none" stroke="#5ec8f8"></rect></g><g class="smm-node" transform="matrix(1,0,0,1,1339,542.5)" style="cursor: default;"><path d="
      M5,0
      L54,0
      C54,0 59,0 59,5
      L59,22
      C59,22 59,27 54,27
      L5,27
      C5,27 0,27 0,22
      L0,5
      C0,5 0,0 5,0
      Z
    " class="smm-node-shape" transform="matrix(1,0,0,1,0.5,0.5)" fill="transparent" stroke-dasharray="none" stroke-width="1" stroke="#1e3556"></path><g transform="matrix(1,0,0,1,15.5,5.5)"><g data-width="29" data-height="17" data-offsetx="0"><foreignObject width="29" height="17" x="0" y="0" style="line-height: 1.2; font-family: 微软雅黑, &quot;Microsoft YaHei&quot;; font-size: 14px; font-weight: normal; font-style: normal; text-decoration: none; color: rgb(30, 53, 86); text-align: left;"><div class="smm-richtext-node-wrap" xmlns="http://www.w3.org/1999/xhtml" style="max-width: 500px;"><p>分数</p></div></foreignObject></g></g><rect width="64" height="32" x="-2" y="-2" class="smm-hover-node" rx="5" ry="5" fill="none" stroke="#5ec8f8"></rect></g><g class="smm-node" transform="matrix(1,0,0,1,927,614.5)" style="cursor: default;"><path d="
      M5,0
      L222,0
      C222,0 227,0 227,5
      L227,22
      C227,22 227,27 222,27
      L5,27
      C5,27 0,27 0,22
      L0,5
      C0,5 0,0 5,0
      Z
    " class="smm-node-shape" transform="matrix(1,0,0,1,0.5,0.5)" fill="transparent" stroke-dasharray="none" stroke-width="1" stroke="#1e3556"></path><g transform="matrix(1,0,0,1,15.5,5.5)"><g data-width="197" data-height="17" data-offsetx="0"><foreignObject width="197" height="17" x="0" y="0" style="line-height: 1.2; font-family: 微软雅黑, &quot;Microsoft YaHei&quot;; font-size: 14px; font-weight: normal; font-style: normal; text-decoration: none; color: rgb(30, 53, 86); text-align: left;"><div class="smm-richtext-node-wrap" xmlns="http://www.w3.org/1999/xhtml" style="max-width: 500px;"><p>不同种类敌人死亡进行分阶统计</p></div></foreignObject></g></g><rect width="232" height="32" x="-2" y="-2" class="smm-hover-node" rx="5" ry="5" fill="none" stroke="#5ec8f8"></rect></g><g class="smm-node active" transform="matrix(1,0,0,1,927,666.5)" style="cursor: default;"><path d="
      M5,0
      L110,0
      C110,0 115,0 115,5
      L115,22
      C115,22 115,27 110,27
      L5,27
      C5,27 0,27 0,22
      L0,5
      C0,5 0,0 5,0
      Z
    " class="smm-node-shape" transform="matrix(1,0,0,1,0.5,0.5)" fill="transparent" stroke-dasharray="none" stroke-width="1" stroke="#1e3556"></path><g transform="matrix(1,0,0,1,15.5,5.5)"><g data-width="85" data-height="17" data-offsetx="0"><foreignObject width="85" height="17" x="0" y="0" style="line-height: 1.2; font-family: 微软雅黑, &quot;Microsoft YaHei&quot;; font-size: 14px; font-weight: normal; font-style: normal; text-decoration: none; color: rgb(30, 53, 86); text-align: left;"><div class="smm-richtext-node-wrap" xmlns="http://www.w3.org/1999/xhtml" style="max-width: 500px;"><p>道具拾取加分</p></div></foreignObject></g></g><rect width="120" height="32" x="-2" y="-2" class="smm-hover-node" rx="5" ry="5" fill="none" stroke="#5ec8f8"></rect><g class="smm-quick-create-child-btn" transform="matrix(1,0,0,1,116,14)"><circle r="10" cx="10" cy="0" fill="#ffffff" style="cursor: pointer;"></circle><svg viewBox="0 0 1024 1024" width="20" height="20" x="0" y="-10" fill="#808080" style="cursor: pointer;"><path d="M514.048 62.464q93.184 0 175.616 35.328t143.872 96.768 96.768 143.872 35.328 175.616q0 94.208-35.328 176.128t-96.768 143.36-143.872 96.768-175.616 35.328q-94.208 0-176.64-35.328t-143.872-96.768-96.768-143.36-35.328-176.128q0-93.184 35.328-175.616t96.768-143.872 143.872-96.768 176.64-35.328zM772.096 576.512q26.624 0 45.056-18.944t18.432-45.568-18.432-45.056-45.056-18.432l-192.512 0 0-192.512q0-26.624-18.944-45.568t-45.568-18.944-45.056 18.944-18.432 45.568l0 192.512-192.512 0q-26.624 0-45.056 18.432t-18.432 45.056 18.432 45.568 45.056 18.944l192.512 0 0 191.488q0 26.624 18.432 45.568t45.056 18.944 45.568-18.944 18.944-45.568l0-191.488 192.512 0z"></path></svg></g><rect width="4" height="28" fill="transparent" style="cursor: ew-resize;"></rect><rect width="4" height="28" fill="transparent" x="112" style="cursor: ew-resize;"></rect></g></g><g class="smm-associative-line-container"></g><g class="smm-other-container"></g></g><style>
  /* 鼠标hover和激活时渲染的矩形 */
  .smm-hover-node{
    display: none;
    opacity: 0.6;
    stroke-width: 1;
  }

  .smm-node:not(.smm-node-dragging):hover .smm-hover-node{
    display: block;
  }

  .smm-node.active .smm-hover-node, .smm-node-highlight .smm-hover-node{
    display: block;
    opacity: 1;
    stroke-width: 2;
  }

  .smm-text-node-wrap, .smm-expand-btn-text {
    user-select: none;
  }

  .smm-desctext-node-wrap {
    word-break: break-all;
    user-select: none;
  }

      .smm-richtext-node-wrap {
        word-break: break-all;
        user-select: none;
      }

      .ql-editor .ql-align-left, 
      .smm-richtext-node-wrap .ql-align-left {
        text-align: left;
      }

      .smm-richtext-node-wrap .ql-align-right {
        text-align: right;
      }

      .smm-richtext-node-wrap .ql-align-center {
        text-align: center;
      }
      </style></svg>